HIERARCHY
ROOT Hips
{
	OFFSET 0.00000 0.00000 0.00000
	CHANNELS 6 Xposition Yposition Zposition Zrotation Yrotation Xrotation 
	JOINT LHipJoint
	{
		OFFSET 0 0 0
		CHANNELS 3 Zrotation Yrotation Xrotation
		JOINT LeftHip
		{
			OFFSET 1.37590 -1.78394 0.89329
			CHANNELS 3 Zrotation Yrotation Xrotation
			JOINT LeftKnee
			{
				OFFSET 2.47928 -6.81178 0.00000
				CHANNELS 3 Zrotation Yrotation Xrotation
				JOINT LeftAnkle
				{
					OFFSET 2.63345 -7.23535 0.00000
					CHANNELS 3 Zrotation Yrotation Xrotation
					JOINT LeftToe
					{
						OFFSET 0.23938 -0.65768 2.27012
						CHANNELS 3 Zrotation Yrotation Xrotation
						End Site
						{
							OFFSET 0.00000 -0.00000 1.18363
						}
					}
				}
			}
		}
	}
	JOINT RHipJoint
	{
		OFFSET 0 0 0
		CHANNELS 3 Zrotation Yrotation Xrotation
		JOINT RightHip
		{
			OFFSET -1.33617 -1.78394 0.89329
			CHANNELS 3 Zrotation Yrotation Xrotation
			JOINT RightKnee
			{
				OFFSET -2.56922 -7.05888 0.00000
				CHANNELS 3 Zrotation Yrotation Xrotation
				JOINT RightAnkle
				{
					OFFSET -2.56568 -7.04915 0.00000
					CHANNELS 3 Zrotation Yrotation Xrotation
					JOINT RightToe
					{
						OFFSET -0.27533 -0.75646 2.18105
						CHANNELS 3 Zrotation Yrotation Xrotation
						End Site
						{
							OFFSET -0.00000 -0.00000 1.15233
						}
					}
				}
			}
		}
	}
	JOINT lowerback
	{
		OFFSET 0 0 0
		CHANNELS 3 Zrotation Yrotation Xrotation
		JOINT Chest
		{
			OFFSET 0.06190 2.15152 -0.00935
			CHANNELS 3 Zrotation Yrotation Xrotation
			JOINT Chest2
			{
				OFFSET 0.06334 2.15332 0.00872
				CHANNELS 3 Zrotation Yrotation Xrotation
				JOINT lowerneck
				{
					OFFSET 0 0 0
					CHANNELS 3 Zrotation Yrotation Xrotation
					JOINT Neck
					{
						OFFSET -0.04202 1.66908 0.23524
						CHANNELS 3 Zrotation Yrotation Xrotation
						JOINT Head
						{
							OFFSET 0.07510 1.69357 -0.24440
							CHANNELS 3 Zrotation Yrotation Xrotation
							End Site
							{
								OFFSET 0.02556 1.71719 -0.11000
							}
						}
					}
				}
				JOINT LeftCollar
				{
					OFFSET 0 0 0
					CHANNELS 3 Zrotation Yrotation Xrotation
					JOINT LeftShoulder
					{
						OFFSET 3.67168 1.26306 -0.41342
CHANNELS 3 Zrotation Xrotation Yrotation
						JOINT LeftElbow
						{
OFFSET 0 -4.685100 -0.000000
CHANNELS 3 Zrotation Xrotation Yrotation
							JOINT LeftWrist
							{
OFFSET 0 -3.396260 -0.000000
CHANNELS 3 Zrotation Xrotation Yrotation
								JOINT lhand
								{
									OFFSET 0 0 0
CHANNELS 3 Zrotation Xrotation Yrotation
									JOINT LFingers
									{
OFFSET 0 -0.486080 -0.000000
CHANNELS 3 Zrotation Xrotation Yrotation
										End Site
										{
OFFSET 0 -0.391890 -0.000000
										}
									}
								}
								JOINT LThumb
								{
OFFSET 0 0.000000 0.000000
CHANNELS 3 Zrotation Xrotation Yrotation
									End Site
									{
OFFSET 0 -0.397870 0.397870
									}
								}
							}
						}
					}
				}
				JOINT RightCollar
				{
					OFFSET 0 0 0
					CHANNELS 3 Zrotation Yrotation Xrotation
					JOINT RightShoulder
					{
						OFFSET -3.04136 1.42992 -0.76390
CHANNELS 3 Zrotation Xrotation Yrotation
						JOINT RightElbow
						{
OFFSET 0 -5.555760 -0.000000
CHANNELS 3 Zrotation Xrotation Yrotation
							JOINT RightWrist
							{
OFFSET 0 -3.327740 -0.000000
CHANNELS 3 Zrotation Xrotation Yrotation
								JOINT rhand
								{
									OFFSET 0 0 0
CHANNELS 3 Zrotation Xrotation Yrotation
									JOINT RFingers
									{
OFFSET 0 -0.507630 -0.000000
CHANNELS 3 Zrotation Xrotation Yrotation
										End Site
										{
OFFSET 0 -0.409260 -0.000000
										}
									}
								}
								JOINT RThumb
								{
OFFSET 0 0.000000 0.000000
CHANNELS 3 Zrotation Xrotation Yrotation
									End Site
									{
OFFSET 0 -0.415510 0.415510
									}
								}
							}
						}
					}
				}
			}
		}
	}
}
MOTION
Frames: 9
Frame Time: 0.008333333333333333
-10.910622 17.897572 6.387384 -179.163876 -74.091414 183.616366 0.000000 0.000000 0.000000 -23.743322 -3.908915 -11.306619 1.383811 7.443172 21.035249 0.391700 -2.066201 -11.287300 0.140680 2.417627 6.661339 0.000000 0.000000 0.000000 13.888871 8.716918 -33.647462 -8.802603 -16.677251 55.402333 0.554381 -13.072542 -4.187392 -0.114517 -2.181703 6.007975 0.704475 -3.130410 1.469128 4.540582 -4.247040 0.329469 4.339301 -2.173506 -0.188639 -1.854167 1.448005 -17.676231 2.310428 2.016883 13.775513 1.278089 1.079864 7.072470 0.000000 0.000000 0.000000 -3.327503 -27.902182 -84.235565 40.507326 -48.367613 18.817570 45.467601 69.602350 -16.249336 0.000000 0.000000 0.000000 -7.125000 0.000000 0.000000 18.339784 51.616810 -3.077312 0.000000 0.000000 0.000000 -10.662127 -6.794679 35.898415 -81.589227 -59.730868 -52.722667 -11.968754 -28.161090 52.285326 0.000000 0.000000 0.000000 7.125000 0.000000 0.000000 64.154247 75.488099 -50.035835
-11.063128 17.899082 6.361271 -179.440114 -74.522438 184.051497 0.000000 0.000000 0.000000 -23.950882 -3.940100 -10.707738 1.346556 7.346538 20.746197 0.409493 -2.460164 -11.489790 0.138963 2.402544 6.619605 0.000000 0.000000 0.000000 13.790710 8.679362 -34.193014 -8.315092 -16.344641 53.687473 0.544048 -12.937855 -4.720404 -0.113539 -2.172271 5.982015 0.617125 -3.133188 1.426802 4.494674 -4.251750 0.358502 4.336597 -2.175258 -0.131929 -1.818957 1.430499 -17.666886 2.298628 1.986274 13.760844 1.264921 1.065962 7.067368 0.000000 0.000000 0.000000 -2.939600 -26.471975 -83.786202 40.540166 -48.386711 18.842067 44.962249 68.922191 -15.735387 0.000000 0.000000 0.000000 -7.125000 0.000000 0.000000 17.661167 50.838818 -2.612653 0.000000 0.000000 0.000000 -10.777306 -6.178468 36.490944 -81.088538 -59.697635 -52.290299 -12.700035 -27.355824 52.817336 0.000000 0.000000 0.000000 7.125000 0.000000 0.000000 65.813402 75.941573 -52.022605
-11.214548 17.899207 6.334041 -179.707154 -74.982262 184.493566 0.000000 0.000000 0.000000 -24.134386 -3.983185 -10.135807 1.311761 7.254755 20.472274 0.426304 -2.871807 -11.680411 0.136926 2.384515 6.569685 0.000000 0.000000 0.000000 13.696288 8.624887 -34.694930 -7.802893 -15.971653 51.848432 0.530634 -12.788022 -5.219172 -0.110410 -2.142598 5.899746 0.529431 -3.128393 1.381714 4.452024 -4.246084 0.383614 4.337523 -2.171873 -0.078383 -1.794167 1.397353 -17.666444 2.301756 1.934524 13.741513 1.256084 1.042879 7.062402 0.000000 0.000000 0.000000 -2.572457 -25.056519 -83.249453 40.560134 -48.398283 18.857001 44.411325 68.154889 -15.206721 0.000000 0.000000 0.000000 -7.125000 0.000000 0.000000 16.949483 50.036656 -2.159804 0.000000 0.000000 0.000000 -10.905675 -5.649053 37.027132 -80.510488 -59.656917 -51.791250 -13.220694 -26.622426 53.278215 0.000000 0.000000 0.000000 7.125000 0.000000 0.000000 67.407804 76.276593 -53.841261
-11.365055 17.897986 6.305654 -179.967608 -75.462534 184.941309 0.000000 0.000000 0.000000 -24.293200 -4.028341 -9.584979 1.279101 7.167219 20.211750 0.441983 -3.299409 -11.860841 0.134335 2.362588 6.508805 0.000000 0.000000 0.000000 13.605320 8.559376 -35.142083 -7.273159 -15.556600 49.898124 0.514834 -12.627063 -5.674912 -0.105320 -2.092475 5.761379 0.443066 -3.111558 1.336951 4.411017 -4.224335 0.407057 4.339493 -2.160422 -0.027592 -1.780413 1.346599 -17.673351 2.319815 1.859504 13.715520 1.251357 1.009485 7.056760 0.000000 0.000000 0.000000 -2.224153 -23.659137 -82.613949 40.570289 -48.404175 18.864567 43.818649 67.306150 -14.669396 0.000000 0.000000 0.000000 -7.125000 0.000000 0.000000 16.213720 49.221351 -1.729965 0.000000 0.000000 0.000000 -11.048212 -5.208940 37.499208 -79.860057 -59.607802 -51.230069 -13.471204 -26.017429 53.662659 0.000000 0.000000 0.000000 7.125000 0.000000 0.000000 68.874730 76.472894 -55.408646
-11.515136 17.895224 6.276164 -180.229972 -75.960791 185.398063 0.000000 0.000000 0.000000 -24.429822 -4.075229 -9.053031 1.248647 7.084766 19.966699 0.456503 -3.742138 -12.032460 0.131233 2.335273 6.433180 0.000000 0.000000 0.000000 13.514934 8.484599 -35.537224 -6.736541 -15.103406 47.866033 0.497848 -12.464128 -6.090201 -0.098311 -2.021551 5.565209 0.357404 -3.082495 1.292870 4.370854 -4.186157 0.430429 4.341775 -2.140805 0.021324 -1.778232 1.278938 -17.687963 2.351528 1.762172 13.682102 1.250538 0.966073 7.050357 0.000000 0.000000 0.000000 -1.889375 -22.283394 -81.879377 40.575421 -48.407093 18.868430 43.193444 66.388407 -14.133668 0.000000 0.000000 0.000000 -7.125000 0.000000 0.000000 15.466083 48.409094 -1.332327 0.000000 0.000000 0.000000 -11.205597 -4.855182 37.907334 -79.145547 -59.549733 -50.613950 -13.414217 -25.597986 53.979189 0.000000 0.000000 0.000000 7.125000 0.000000 0.000000 70.192553 76.524939 -56.692174
-11.664454 17.890983 6.245643 -180.503978 -76.479565 185.877212 0.000000 0.000000 0.000000 -24.547585 -4.129999 -8.544151 1.221194 7.009299 19.742922 0.469903 -4.199649 -12.197357 0.127863 2.305043 6.349393 0.000000 0.000000 0.000000 13.420337 8.401037 -35.891191 -6.202958 -14.618757 45.784450 0.480726 -12.308435 -6.469921 -0.089957 -1.933729 5.322599 0.271338 -3.043351 1.250711 4.330689 -4.134135 0.451699 4.344682 -2.114244 0.065990 -1.787295 1.195732 -17.709339 2.396101 1.644725 13.641829 1.253528 0.913748 7.043103 0.000000 0.000000 0.000000 -1.563778 -20.931260 -81.047205 40.577645 -48.408445 18.870145 42.542476 65.415602 -13.610671 0.000000 0.000000 0.000000 -7.125000 0.000000 0.000000 14.714232 47.616198 -0.972501 0.000000 0.000000 0.000000 -11.378925 -4.580319 38.258201 -78.380046 -59.483154 -49.954323 -13.060702 -25.388897 54.224050 0.000000 0.000000 0.000000 7.125000 0.000000 0.000000 71.297096 76.442327 -57.636553
-11.813224 17.885264 6.213975 -180.793277 -77.018046 186.380551 0.000000 0.000000 0.000000 -24.646048 -4.192197 -8.059039 1.196955 6.941812 19.543157 0.482115 -4.671696 -12.355868 0.124223 2.272140 6.258381 0.000000 0.000000 0.000000 13.320699 8.312608 -36.205742 -5.679949 -14.107387 43.676553 0.464523 -12.168053 -6.815664 -0.081044 -1.835693 5.051803 0.185323 -2.994357 1.211316 4.290960 -4.068706 0.470660 4.348315 -2.080975 0.105699 -1.807163 1.097216 -17.736457 2.450923 1.507729 13.593921 1.259444 0.852356 7.034620 0.000000 0.000000 0.000000 -1.247993 -19.605054 -80.113500 40.576465 -48.407759 18.869273 41.871201 64.394142 -13.104020 0.000000 0.000000 0.000000 -7.125000 0.000000 0.000000 13.963377 46.848839 -0.651864 0.000000 0.000000 0.000000 -11.571126 -4.381964 38.556423 -77.571960 -59.407767 -49.258470 -12.400341 -25.422488 54.397385 0.000000 0.000000 0.000000 7.125000 0.000000 0.000000 72.175677 76.226245 -58.225663
-11.961749 17.878146 6.181232 -181.099257 -77.574363 186.907290 0.000000 0.000000 0.000000 -24.724795 -4.258942 -7.595858 1.175997 6.882839 19.368854 0.492928 -5.156963 -12.507675 0.119999 2.233578 6.151573 0.000000 0.000000 0.000000 13.215463 8.223466 -36.479881 -5.174099 -13.574693 41.564326 0.449845 -12.049920 -7.132036 -0.072178 -1.733132 4.768657 0.100761 -2.935149 1.175089 4.251231 -3.989435 0.488150 4.351474 -2.040694 0.140863 -1.838058 0.983877 -17.768642 2.515958 1.352060 13.538644 1.268412 0.782458 7.025046 0.000000 0.000000 0.000000 -0.939412 -18.309897 -79.080788 40.572541 -48.405484 18.866331 41.183949 63.323785 -12.618481 0.000000 0.000000 0.000000 -7.125000 0.000000 0.000000 13.217299 46.114291 -0.371539 0.000000 0.000000 0.000000 -11.783928 -4.258190 38.806388 -76.727704 -59.323487 -48.531990 -11.432305 -25.719419 54.494269 0.000000 0.000000 0.000000 7.125000 0.000000 0.000000 72.817180 75.879590 -58.447417
-12.110139 17.869588 6.147414 -181.427134 -78.147535 187.459761 0.000000 0.000000 0.000000 -24.784345 -4.329469 -7.152718 1.158361 6.832890 19.221392 0.502397 -5.653670 -12.653262 0.115161 2.188221 6.026105 0.000000 0.000000 0.000000 13.104371 8.135861 -36.712782 -4.690716 -13.026243 39.467881 0.437299 -11.958841 -7.425301 -0.063580 -1.627479 4.477099 0.018965 -2.865823 1.141394 4.210829 -3.896514 0.505239 4.352673 -1.993578 0.172863 -1.879491 0.855870 -17.804029 2.590320 1.177710 13.475031 1.280105 0.703919 7.013780 0.000000 0.000000 0.000000 -0.635726 -17.051628 -77.945722 40.561892 -48.399327 18.858392 40.494378 62.207015 -12.147563 0.000000 0.000000 0.000000 -7.125000 0.000000 0.000000 12.487214 45.406846 -0.127706 0.000000 0.000000 0.000000 -12.020040 -4.207390 39.016027 -75.855121 -59.230203 -47.781886 -10.167728 -26.282495 54.506538 0.000000 0.000000 0.000000 7.125000 0.000000 0.000000 73.218851 75.407981 -58.300962
